<?xml version="1.0" encoding="UTF-8" standalone="no"?>
<svg
        role="img"
        viewBox="0 0 23 23"
        id="Polygon--Streamline-Simple-Icons"
        xmlns:inkscape="http://www.inkscape.org/namespaces/inkscape"
        width="23"
        version="1.1"
        sodipodi:docname="Polygon--Streamline-Simple-Icons.svg"
        inkscape:version="1.4.2 (f4327f4, 2025-05-13)"
        xmlns:svg="http://www.w3.org/2000/svg"
        xmlns:sodipodi="http://sodipodi.sourceforge.net/DTD/sodipodi-0.dtd"
        xmlns:dc="http://purl.org/dc/elements/1.1/"
        height="23"
        xmlns:rdf="http://www.w3.org/1999/02/22-rdf-syntax-ns#"
        xmlns:cc="http://creativecommons.org/ns#"
        xmlns="http://www.w3.org/2000/svg">
    <defs
            id="defs1"/>
    <sodipodi:namedview
            id="namedview1"
            pagecolor="#ffffff"
            bordercolor="#000000"
            borderopacity="0.25"
            inkscape:showpageshadow="2"
            inkscape:pageopacity="0.0"
            inkscape:pagecheckerboard="0"
            inkscape:deskcolor="#d1d1d1"
            inkscape:zoom="12.006084"
            inkscape:cx="-17.282904"
            inkscape:cy="10.119869"
            inkscape:window-width="1920"
            inkscape:window-height="1017"
            inkscape:window-x="1912"
            inkscape:window-y="-8"
            inkscape:window-maximized="1"
            inkscape:current-layer="Polygon--Streamline-Simple-Icons"/>
    <desc
            id="desc1">
        Polygon Streamline Icon: https://streamlinehq.com
    </desc>
    <title
            id="title1">Polygon
    </title>
    <path
            d="m 17.0775,15.660705 5.454833,-3.150042 A 0.93916667,0.93916667 0 0 0 23,11.700871 V 5.3998296 a 0.93916667,0.93916667 0 0 0 -0.467667,-0.81075 L 17.076542,1.4399963 a 0.93916667,0.93916667 0 0 0 -0.936292,0 l -5.454833,3.1490833 a 0.93916667,0.93916667 0 0 0 -0.468625,0.81075 V 16.657371 l -3.8247087,2.208 -3.8256666,-2.208 v -4.417916 l 3.8256666,-2.208 2.5232917,1.456666 V 8.5249546 L 6.85975,7.3385379 a 0.93916667,0.93916667 0 0 0 -0.9362917,0 L 0.46766667,10.48858 A 0.93916667,0.93916667 0 0 0 0,11.29933 v 6.299125 a 0.93916667,0.93916667 0 0 0 0.46766667,0.811708 l 5.45579163,3.149083 a 0.940125,0.940125 0 0 0 0.9362917,0 l 5.454833,-3.149083 a 0.93916667,0.93916667 0 0 0 0.468625,-0.81075 V 6.3418713 l 0.069,-0.039292 3.756667,-2.1687083 3.82375,2.2089583 v 4.4169587 l -3.82375,2.208 -2.520417,-1.453792 v 2.963167 l 2.050834,1.1845 a 0.940125,0.940125 0 0 0 0.93725,0 v -9.58e-4 z"
            fill="#000000"
            stroke-width="0.958333"
            id="path1"/>
    <metadata
            id="metadata1">
        <rdf:RDF>
            <cc:Work
                    rdf:about="">
                <dc:title>Polygon</dc:title>
            </cc:Work>
        </rdf:RDF>
    </metadata>
</svg>
