<?xml version="1.0" encoding="UTF-8" standalone="no"?>
<svg
        role="img"
        viewBox="0 0 23 23"
        id="Solana--Streamline-Simple-Icons"
        height="23"
        width="23"
        version="1.1"
        sodipodi:docname="Rundeck--Streamline-Simple-Icons.svg"
        inkscape:version="1.4.2 (f4327f4, 2025-05-13)"
        xmlns:inkscape="http://www.inkscape.org/namespaces/inkscape"
        xmlns:sodipodi="http://sodipodi.sourceforge.net/DTD/sodipodi-0.dtd"
        xmlns="http://www.w3.org/2000/svg"
        xmlns:svg="http://www.w3.org/2000/svg"
        xmlns:rdf="http://www.w3.org/1999/02/22-rdf-syntax-ns#"
        xmlns:cc="http://creativecommons.org/ns#"
        xmlns:dc="http://purl.org/dc/elements/1.1/">
  <defs
          id="defs1" />
  <sodipodi:namedview
          id="namedview1"
          pagecolor="#ffffff"
          bordercolor="#000000"
          borderopacity="0.25"
          inkscape:showpageshadow="2"
          inkscape:pageopacity="0.0"
          inkscape:pagecheckerboard="0"
          inkscape:deskcolor="#d1d1d1"
          inkscape:zoom="8.4895833"
          inkscape:cx="-6.5374233"
          inkscape:cy="15.136196"
          inkscape:window-width="1920"
          inkscape:window-height="1017"
          inkscape:window-x="1912"
          inkscape:window-y="-8"
          inkscape:window-maximized="1"
          inkscape:current-layer="Solana--Streamline-Simple-Icons" />
  <desc
          id="desc1">
    Solana Streamline Icon: https://streamlinehq.com
  </desc>
  <title
          id="title1">Solana</title>
  <path
          d="m 21.891712,18.133887 -3.466732,4.552856 a 0.80508335,1.0120272 0 0 1 -0.267748,0.231643 0.82310827,1.0346853 0 0 1 -0.321124,0.08161 H 1.4023805 a 0.41028539,0.51574781 0 0 1 -0.2206738,-0.08062 0.39488546,0.49638938 0 0 1 -0.1483993,-0.215803 0.38281053,0.48121063 0 0 1 -0.027475,-0.279926 0.38832299,0.48814006 0 0 1 0.1023745,-0.25276 l 3.4692695,-4.552857 a 0.80499586,1.0119172 0 0 1 0.2670487,-0.231201 0.82310827,1.0346853 0 0 1 0.3200733,-0.08205 H 21.597364 a 0.41054789,0.51607776 0 0 1 0.220762,0.08073 0.39646046,0.49836922 0 0 1 0.148486,0.215582 0.38324802,0.48176059 0 0 1 0.02739,0.280147 0.388673,0.48858002 0 0 1 -0.102287,0.25265 z M 18.42498,8.9655872 a 0.80517085,1.0121372 0 0 0 -0.267748,-0.231642 0.82337076,1.0350153 0 0 0 -0.321124,-0.08161 H 1.4023805 a 0.41011038,0.51552782 0 0 0 -0.2206738,0.08073 0.39488546,0.49638938 0 0 0 -0.1483993,0.215693 0.38289803,0.48132062 0 0 0 -0.027475,0.280037 0.388498,0.48836005 0 0 0 0.1023745,0.252649 l 3.4692695,4.5529678 a 0.80534585,1.0123572 0 0 0 0.2670487,0.2312 c 0.1009744,0.05389 0.2099989,0.08183 0.3200733,0.08206 H 21.597364 a 0.41037288,0.5158578 0 0 0 0.220762,-0.08073 0.39637296,0.49825923 0 0 0 0.148486,-0.215692 0.38342303,0.48198056 0 0 0 0.02739,-0.280037 0.38884799,0.48880001 0 0 0 -0.102287,-0.25265 z M 1.402468,5.6952243 h 16.433728 a 0.82345826,1.0351253 0 0 0 0.321123,-0.081614 0.80517085,1.0121372 0 0 0 0.267749,-0.2316409 L 21.8918,0.82900237 A 0.388673,0.48858002 0 0 0 21.994174,0.57635307 0.38307302,0.48154061 0 0 0 21.9667,0.29631587 0.39637296,0.49825923 0 0 0 21.818213,0.08073357 0.41037288,0.5158578 0 0 0 21.597451,1.7339508e-7 H 5.1645986 A 0.82337076,1.0350153 0 0 0 4.8445253,0.08194347 0.80525836,1.0122472 0 0 0 4.5774766,0.31314467 L 1.1089946,4.8661121 a 0.38832299,0.48814006 0 0 0 -0.102287,0.2524293 0.38281053,0.48121063 0 0 0 0.0273,0.2798171 0.39479796,0.49627939 0 0 0 0.1480493,0.2155823 0.41028539,0.51574781 0 0 0 0.2203238,0.081283 z"
          fill="#000000"
          stroke-width="0.981027"
          id="path1" />
  <metadata
          id="metadata1">
    <rdf:RDF>
      <cc:Work
              rdf:about="">
        <dc:title>Solana</dc:title>
      </cc:Work>
    </rdf:RDF>
  </metadata>
</svg>
