<?xml version="1.0" encoding="UTF-8" standalone="no"?>
<svg
        viewBox="0 0 23 23"
        fill="#000000"
        id="Wechat-2-Line--Streamline-Remix"
        height="23"
        width="23"
        version="1.1"
        xmlns:svg="http://www.w3.org/2000/svg"
        inkscape:version="1.4.2 (f4327f4, 2025-05-13)"
        xmlns:inkscape="http://www.inkscape.org/namespaces/inkscape"
        xmlns:sodipodi="http://sodipodi.sourceforge.net/DTD/sodipodi-0.dtd"
        sodipodi:docname="WeChat-App-Icon-Logo.wine.svg"
        xmlns="http://www.w3.org/2000/svg">
    <defs
            id="defs1"/>
    <sodipodi:namedview
            id="namedview1"
            pagecolor="#ffffff"
            bordercolor="#000000"
            borderopacity="0.25"
            inkscape:showpageshadow="2"
            inkscape:pageopacity="0.0"
            inkscape:pagecheckerboard="0"
            inkscape:deskcolor="#d1d1d1"
            inkscape:zoom="16.979167"
            inkscape:cx="-0.50061349"
            inkscape:cy="10.748466"
            inkscape:window-width="1920"
            inkscape:window-height="1017"
            inkscape:window-x="1912"
            inkscape:window-y="-8"
            inkscape:window-maximized="1"
            inkscape:current-layer="Wechat-2-Line--Streamline-Remix"/>
    <desc
            id="desc1">
        Wechat 2 Line Streamline Icon: https://streamlinehq.com
    </desc>
    <path
            d="m 7.6279347,10.117515 c -0.8332038,0 -1.4928388,-0.6916692 -1.4928388,-1.5653242 0,-0.8736062 0.659635,-1.5652267 1.4928388,-1.5652267 0.8332152,0 1.4928389,0.6916205 1.4928389,1.5652267 0,0.873655 -0.6596237,1.5653242 -1.4928389,1.5653242 z m 7.7440843,0 c -0.833226,0 -1.492793,-0.6916692 -1.492793,-1.5653242 0,-0.8736062 0.659567,-1.5652267 1.492793,-1.5652267 0.833227,0 1.492908,0.6916205 1.492908,1.5652267 0,0.873655 -0.659681,1.5653242 -1.492908,1.5653242 z M 5.4854972,19.49546 6.3166564,18.964231 c 0.9405717,-0.601103 2.0543872,-0.83251 3.1426236,-0.652837 0.2456812,0.04054 0.4476863,0.0717 0.603575,0.09325 0.471848,0.06524 0.951828,0.09836 1.437151,0.09836 5.135154,0 9.176763,-3.679162 9.176763,-8.034169 0,-4.3550676 -4.041609,-8.0342302 -9.176763,-8.0342302 -5.1352007,0 -9.1767748,3.6791626 -9.1767748,8.0342302 0,1.662221 0.5804012,3.253595 1.6630617,4.602484 0.056094,0.06987 0.1399748,0.166526 0.2490388,0.285577 0.9238677,1.008289 1.3896988,2.383958 1.2789271,3.776913 z M 4.7536446,22.815032 C 4.5411038,22.95417 4.2912983,23.017591 4.0415161,22.995801 3.4021978,22.940049 2.9271086,22.351607 2.9803803,21.681606 L 3.1990545,18.931607 C 3.2544403,18.235069 3.0215248,17.547295 2.5595967,17.043212 2.4176821,16.888251 2.3006029,16.753374 2.208359,16.638461 0.81967084,14.908315 0,12.77573 0,10.468827 0,4.6870249 5.1487216,0 11.500006,0 17.851255,0 23,4.6870249 23,10.468827 c 0,5.78168 -5.148745,10.468766 -11.499994,10.468766 -0.591843,0 -1.173232,-0.04078 -1.7410293,-0.119295 -0.1773789,-0.02447 -0.397854,-0.05843 -0.6612385,-0.10201 -0.5441474,-0.08983 -1.1010484,0.02593 -1.5713289,0.326479 z"
            stroke-width="1.18912"
            id="path1"/>
</svg>
